<?xml version="1.0" standalone="no"?>
<!DOCTYPE svg PUBLIC "-//W3C//DTD SVG 20010904//EN"
 "http://www.w3.org/TR/2001/REC-SVG-20010904/DTD/svg10.dtd">
<svg version="1.0" xmlns="http://www.w3.org/2000/svg"
 width="200.000000pt" height="200.000000pt" viewBox="0 0 200.000000 200.000000"
 preserveAspectRatio="xMidYMid meet">
<metadata>
Created by potrace 1.15, written by Peter Selinger 2001-2017
</metadata>
<g transform="translate(0.000000,200.000000) scale(0.100000,-0.100000)"
fill="#000000" stroke="none">
<path d="M500 975 c0 -88 1 -95 20 -95 16 0 20 7 21 33 l1 32 10 -32 c8 -25
17 -33 34 -33 23 0 23 1 8 36 -11 26 -12 40 -5 47 15 15 14 80 -1 95 -7 7 -29
12 -50 12 l-38 0 0 -95z"/>
<path d="M620 1045 c-13 -33 -13 -106 -1 -138 11 -30 26 -36 69 -30 31 5 32 7
32 54 0 48 -1 49 -30 49 -30 0 -43 -24 -18 -32 7 -3 9 -12 5 -22 -12 -32 -27
-5 -27 49 0 55 17 84 27 46 9 -35 35 -26 31 12 -3 29 -6 32 -41 35 -32 3 -38
0 -47 -23z"/>
<path d="M820 975 c0 -88 1 -95 20 -95 16 0 20 7 21 38 l1 37 12 -35 c7 -19
20 -36 29 -38 15 -3 17 8 17 92 0 79 -3 96 -15 96 -11 0 -15 -12 -16 -42 l-1
-43 -15 43 c-10 29 -20 42 -34 42 -17 0 -19 -8 -19 -95z"/>
<path d="M1090 1055 c-16 -19 -6 -56 25 -93 26 -31 32 -52 15 -52 -5 0 -10 9
-10 20 0 13 -7 20 -20 20 -25 0 -28 -41 -4 -64 32 -32 84 -8 84 38 0 13 -13
40 -30 61 -31 39 -37 55 -20 55 6 0 10 -9 10 -20 0 -30 40 -27 41 3 1 12 7
-14 14 -58 8 -44 14 -81 14 -82 1 -2 10 -3 20 -3 16 0 21 10 27 48 8 50 9 49
19 -10 4 -29 11 -38 25 -38 11 0 20 3 20 8 0 4 6 46 14 95 12 82 12 87 -5 87
-13 0 -21 -12 -27 -42 -7 -32 -10 -36 -11 -16 -3 75 -51 80 -51 5 0 -18 -2
-19 -10 -7 -5 8 -10 25 -10 38 0 24 -34 32 -43 10 -4 -10 -6 -10 -6 0 -1 17
-66 15 -81 -3z"/>
<path d="M1450 975 l0 -95 40 0 c29 0 40 4 40 15 0 9 -9 15 -25 15 -20 0 -25
5 -25 25 0 18 5 25 20 25 11 0 20 7 20 15 0 8 -9 15 -20 15 -15 0 -20 7 -20
25 0 23 4 25 40 25 l40 0 0 -80 c0 -64 3 -80 15 -80 12 0 15 16 15 80 0 64 3
80 15 80 8 0 15 7 15 15 0 12 -16 15 -85 15 l-85 0 0 -95z"/>
</g>
</svg>
